<?xml version="1.0" encoding="utf-8"?>
<!-- Generator: Adobe Illustrator 19.1.0, SVG Export Plug-In . SVG Version: 6.00 Build 0)  -->
<svg version="1.1" id="Layer_1" xmlns="http://www.w3.org/2000/svg" xmlns:xlink="http://www.w3.org/1999/xlink" x="0px" y="0px"
	 viewBox="-159 25 384.1 512" style="enable-background:new -159 25 384.1 512;" xml:space="preserve">
<style type="text/css">
	.st0{fill:#FCC622;}
</style>
<g>
	<path class="st0" d="M223.8,519l-67.5-142.8c-1.3-2.8-3.7-5-6.5-6.2L116.3,355l58.2-97.5c0.1-0.2,0.3-0.5,0.4-0.7
		c11.6-22.6,17.4-47,17.4-72.5c0-43-16.8-83.2-47.4-113.4C114.2,40.7,73.7,24.4,30.7,25C-11,25.6-50.3,42.4-79.9,72.2
		c-29.6,29.9-46.1,69.3-46.3,111.1c-0.2,25.5,5.9,50.9,17.4,73.5c0.1,0.2,0.3,0.5,0.4,0.7l58.2,97.5L-84,370c-2.8,1.2-5,3.4-6.3,6.1
		L-157.8,519c-2.3,4.8-1.3,10.5,2.4,14.2c3.7,3.8,9.3,4.9,14.2,2.7l84.6-37.6l84.6,37.6c3.3,1.5,7,1.5,10.3,0l84.6-37.6l84.6,37.6
		c1.7,0.7,3.4,1.1,5.1,1.1c3.3,0,6.6-1.3,9-3.8C225.1,529.4,226.1,523.7,223.8,519z M-86.5,244.9c-9.7-19.1-14.6-39.8-14.5-61.5
		C-100.6,111-41.3,51.3,31.1,50.3c36.2-0.5,70.3,13.2,96,38.6c25.7,25.4,39.9,59.3,39.9,95.4c0,21.4-4.9,41.8-14.5,60.6L43.9,427.1
		c-3.3,5.6-8.7,6.2-10.8,6.2c-2.2,0-7.5-0.6-10.8-6.2L-86.5,244.9z M127.8,472.9c-3.3-1.5-7-1.5-10.3,0L33,510.5l-84.6-37.6
		c-3.3-1.5-7-1.5-10.3,0l-58.6,26.1l50.9-107.7l32.3-14.4L0.5,440c6.9,11.6,19.1,18.5,32.5,18.5s25.6-6.9,32.5-18.5l37.7-63.1
		l32.3,14.4L186.4,499L127.8,472.9z"/>
	<path class="st0" d="M90.7,184.3c0-31.8-25.9-57.7-57.7-57.7c-31.8,0-57.7,25.9-57.7,57.7c0,31.8,25.9,57.7,57.7,57.7
		C64.8,241.9,90.7,216.1,90.7,184.3z M0.6,184.3c0-17.9,14.5-32.4,32.4-32.4c17.9,0,32.4,14.5,32.4,32.4c0,17.9-14.5,32.4-32.4,32.4
		C15.1,216.7,0.6,202.1,0.6,184.3z"/>
</g>
</svg>
