<?xml version="1.0" encoding="utf-8"?>
<!-- Generator: Adobe Illustrator 19.1.0, SVG Export Plug-In . SVG Version: 6.00 Build 0)  -->
<svg version="1.1" id="Layer_1" xmlns="http://www.w3.org/2000/svg" xmlns:xlink="http://www.w3.org/1999/xlink" x="0px" y="0px"
	 viewBox="-49 141 512 512" style="enable-background:new -49 141 512 512;" xml:space="preserve">
<style type="text/css">
	.st0{fill:#E21F26;}
</style>
<g>
	<path class="st0" d="M343.2,441.2c-12-12-31.5-12-43.4,0l-26.1,26.1c-8.2,8.2-10.8,19.8-7.8,30.2l-9.8,9.8c0,0,0,0,0,0
		c-7,7-50.5-3.7-103.1-56.4c-52.6-52.6-63.4-96.1-56.4-103.1c0,0,0,0,0,0l9.9-9.9c2.8,0.8,5.7,1.2,8.5,1.2c7.9,0,15.7-3,21.7-9
		l26.1-26.1c12-12,12-31.5,0-43.4L62.4,160.4c-5.8-5.8-13.5-9-21.7-9c-8.2,0-15.9,3.2-21.7,9l-26.1,26.1
		c-8.2,8.2-10.8,19.8-7.8,30.2c0,0-8.3,8.4-8.8,9c-27.8,30.8-33,79.4-14.6,137.5c18,56.9,56.9,117.1,109.4,169.6
		c52.5,52.5,112.7,91.3,169.6,109.4c22.8,7.2,44.2,10.8,63.6,10.8c31.8,0,58.3-9.6,77.3-28.7l5.5-5.5c2.7,0.8,5.6,1.2,8.5,1.2
		c8.2,0,15.9-3.2,21.7-9l26.1-26.1c12-12,12-31.5,0-43.4L343.2,441.2z M40.7,182.2L141,282.5L115,308.6c0,0,0,0,0,0l-0.4-0.4
		l-49.8-49.8l-50.2-50.2L40.7,182.2z M360,602.6C360,602.6,360,602.6,360,602.6c-22.1,22.1-61.2,25.7-110,10.3
		C197.8,596.3,142,560.2,92.9,511.1C43.8,462,7.7,406.2-8.9,353.9c-15.5-48.8-11.8-87.9,10.3-110l0,0l2.8-2.8L82,319.1l-7.1,7.1
		c0,0,0,0,0,0c-29.6,29.6,6,96.1,56.4,146.6c37.7,37.7,84.5,67.1,118.1,67.1c11.3,0,21.1-3.3,28.5-10.8c0,0,0,0,0,0l7.1-7.1
		l77.9,77.9L360,602.6z M395.8,589.4L295.4,489l26.1-26.1l100.3,100.3C421.8,563.3,395.8,589.4,395.8,589.4z"/>
	<path class="st0" d="M354.4,373.5c0,8.5,6.9,15.4,15.4,15.4c8.5,0,15.4-6.9,15.4-15.4c0-41.3-16.1-80.1-45.3-109.3
		c-29.2-29.2-68-45.3-109.3-45.3c-8.5,0-15.4,6.9-15.4,15.4s6.9,15.4,15.4,15.4c33.1,0,64.2,12.9,87.6,36.3
		C341.5,309.3,354.4,340.4,354.4,373.5z"/>
	<path class="st0" d="M394.9,209.1C351,165.2,292.6,141,230.5,141c-8.5,0-15.4,6.9-15.4,15.4c0,8.5,6.9,15.4,15.4,15.4
		c53.9,0,104.6,21,142.7,59.1c38.1,38.1,59.1,88.8,59.1,142.7c0,8.5,6.9,15.4,15.4,15.4c8.5,0,15.4-6.9,15.4-15.4
		C463,311.4,438.8,253,394.9,209.1z"/>
	<path class="st0" d="M230.5,296.8c-8.5,0-15.4,6.9-15.4,15.4c0,8.5,6.9,15.4,15.4,15.4c0,0,0,0,0,0c12.6,0,23.6,4.5,32.5,13.5
		c8.8,8.8,13.5,20.1,13.5,32.5c0,8.5,6.9,15.4,15.4,15.4h0c8.5,0,15.4-6.9,15.4-15.4c0-20.8-7.8-39.6-22.5-54.3
		C270,304.6,251.3,296.8,230.5,296.8C230.5,296.8,230.5,296.8,230.5,296.8z"/>
</g>
</svg>
