<?xml version="1.0" encoding="utf-8"?>
<!-- Generator: Adobe Illustrator 19.1.0, SVG Export Plug-In . SVG Version: 6.00 Build 0)  -->
<svg version="1.1" id="Capa_1" xmlns="http://www.w3.org/2000/svg" xmlns:xlink="http://www.w3.org/1999/xlink" x="0px" y="0px"
	 viewBox="-49 160.3 512 473.3" style="enable-background:new -49 160.3 512 473.3;" xml:space="preserve">
<style type="text/css">
	.st0{fill:#474747;}
</style>
<g>
	<g id="Layer_1_65_">
		<g>
			<path class="st0" d="M462,360.2c-1.8-3.8-5.6-6.2-9.8-6.2h-31.9c-20.3-110-116.9-193.6-232.7-193.6C57.2,160.3-49,266.5-49,397
				S57.2,633.7,187.7,633.7c84.2,0,162.8-45.3,205-118.3c5.9-10.3,2.4-23.4-7.9-29.4c-10.3-6-23.4-2.5-29.4,7.8
				c-34.6,59.7-98.8,96.8-167.7,96.8C80.9,590.6-6,503.8-6,397c0-106.8,86.9-193.6,193.6-193.6c92,0,169,64.5,188.6,150.6h-31.6
				c-4.2,0-8,2.4-9.8,6.2c-1.8,3.8-1.2,8.2,1.5,11.4l53.8,64.5c2,2.5,5.1,3.9,8.3,3.9c3.2,0,6.2-1.4,8.3-3.9l53.8-64.5
				C463.2,368.4,463.8,364,462,360.2z"/>
			<path class="st0" d="M187.7,214.1c-11.9,0-21.5,9.6-21.5,21.5v130.5C156.4,373,150,384.2,150,397c0,20.8,16.9,37.7,37.7,37.7
				c5.7,0,11-1.4,15.9-3.6l74.8,43.2c3.4,2,7.1,2.9,10.7,2.9c7.4,0,14.7-3.9,18.6-10.8c5.9-10.3,2.4-23.4-7.9-29.4L225,393.7
				c-1-11.4-6.9-21.3-15.8-27.5V235.6C209.2,223.8,199.5,214.1,187.7,214.1z M187.7,413.1c-8.9,0-16.1-7.2-16.1-16.1
				c0-8.9,7.2-16.1,16.1-16.1c8.9,0,16.1,7.2,16.1,16.1C203.8,405.9,196.6,413.1,187.7,413.1z"/>
		</g>
	</g>
</g>
</svg>
