<?xml version="1.0" encoding="utf-8"?>
<!-- Generator: Adobe Illustrator 19.1.0, SVG Export Plug-In . SVG Version: 6.00 Build 0)  -->
<svg version="1.1" id="Layer_1" xmlns="http://www.w3.org/2000/svg" xmlns:xlink="http://www.w3.org/1999/xlink" x="0px" y="0px"
	 viewBox="0 0 515 320" style="enable-background:new 0 0 515 320;" xml:space="preserve">
<style type="text/css">
	.st0{opacity:0.8;}
	.st1{fill:#448CCA;}
</style>
<g class="st0">
	<path class="st1" d="M515,143h-11.7c2.2,7,3,13,2.7,18.2c-0.2,5.2-1.4,9.9-3.1,14.1c1.6,5.1,2.4,10.3,3,15.7c3.8-6.8,7-12.7,9-18.8
		V143z"/>
	<path class="st1" d="M515,262.6c0,0.3-1.2,0.2-2-0.3c-6.3-4.3-6-13.7-2.6-24.3c1.2-3.9,3.6-8,4.6-12.1v-12.3
		c-9,19.7-16,40.2-7.8,65.1c1.5,4.5,3.4,7.2,4.9,9.2c1,0.5,1.8,0.9,2.9,1.3c0.1,0,0-0.1,0-0.1V262.6z"/>
	<path class="st1" d="M503.2,224.8c-5.7,16.9-8.6,31-6.9,42c1.3,8.2,5.2,14.7,12.5,19.2c-1-1.7-2.4-3.9-3.3-6.8
		c-8.9-26.9-0.4-48.7,9.6-69.8V177c-2,5.5-5.2,11-8.7,17.3c0.7,9.4,0.2,18.7-2,26.7C504,222.3,503.6,223.6,503.2,224.8z"/>
	<path class="st1" d="M514.1,260.7c0.3,0.2,0.9,0.1,0.9-0.4v-29.8c-1,2.7-2,5.4-2.8,8C509.1,248.3,508.6,257,514.1,260.7z"/>
	<polygon class="st1" points="466,104 466,140 515,140 515,131 471,131 471,128 515,128 515,117 471,117 471,114 515,114 515,104 
		469.1,104 	"/>
	<path class="st1" d="M514.3,292.8c-13.4-4.9-20-13.5-21.8-25.5c-1.8-11.6,1.2-26.3,7.1-43.7c0.4-1.1,0.8-2.3,1.1-3.5
		c3.6-13.3,3.2-30.1-1.6-44.8c-4.7-14.5-14-26.7-27.6-31.4c-0.7-0.2-2.5-1-2.7-1H463v-42h6V26h15.5l0.2,1.5c0,0.2,2.6,18.9,4.5,26.5
		c0.2,0.6,0.8,0.6,0.9,0.6c0.4,0,0.6-0.2,0.7-0.6c1.7-8,5.6-26.6,5.6-26.6l0.3-1.4H515V0H0v320h515v-27
		C515,293,514.6,293,514.3,292.8z"/>
	<rect x="501" y="29" class="st1" width="14" height="72"/>
	<path class="st1" d="M493.6,54.5c-0.4,1.7-1.8,3-3.6,3.1c-1.8,0-3.4-1.3-3.8-3c-1.6-6.6-3.8-20.5-4.4-25.5H472v72h26V34
		C497,40.3,494.7,49.4,493.6,54.5z"/>
	<path class="st1" d="M502,172.3c1.2-3.5,2-7.1,2.2-11.1c0.2-5.2-0.5-11.1-2.8-18.1h-22C490.1,149,497.6,159.9,502,172.3z"/>
</g>
</svg>
