<?xml version="1.0" encoding="utf-8"?>
<!-- Generator: Adobe Illustrator 19.1.0, SVG Export Plug-In . SVG Version: 6.00 Build 0)  -->
<svg version="1.1" id="Layer_1" xmlns="http://www.w3.org/2000/svg" xmlns:xlink="http://www.w3.org/1999/xlink" x="0px" y="0px"
	 viewBox="0 0 112.5 120.6" style="enable-background:new 0 0 112.5 120.6;" xml:space="preserve">
<style type="text/css">
	.st0{fill:#FFFFFF;}
</style>
<g>
	<g>
		<g>
			<path class="st0" d="M86.4,68.4c-0.7,0-1.4,0.1-2,0.1V2c0-1.1-0.9-2-2-2H2C0.9,0,0,0.9,0,2v116.6c0,1.1,0.9,2,2,2h84.4
				c14.4,0,26.1-11.7,26.1-26.1S100.8,68.4,86.4,68.4z M3.9,116.6V4h76.4v65.1c-14,3.3-22.7,17.3-19.4,31.4
				c1.6,6.7,5.7,12.5,11.6,16.2H3.9V116.6z M86.4,116.6c-12.2,0-22.1-9.9-22.1-22.1s9.9-22.1,22.1-22.1s22.1,9.9,22.1,22.1
				C108.5,106.7,98.6,116.6,86.4,116.6z"/>
			<rect x="22" y="10.1" class="st0" width="40.2" height="4"/>
			<rect x="14" y="34.2" class="st0" width="20.1" height="4"/>
			<rect x="38.1" y="34.2" class="st0" width="22.1" height="4"/>
			<rect x="34.1" y="44.2" class="st0" width="20.1" height="4"/>
			<rect x="34.1" y="54.3" class="st0" width="36.2" height="4"/>
			<rect x="14" y="64.3" class="st0" width="56.3" height="4"/>
			<rect x="64.2" y="34.2" class="st0" width="6" height="4"/>
			<rect x="58.2" y="44.2" class="st0" width="12.1" height="4"/>
			<rect x="14" y="74.4" class="st0" width="42.2" height="4"/>
			<rect x="14" y="84.5" class="st0" width="42.2" height="4"/>
			<rect x="14" y="94.5" class="st0" width="12.1" height="4"/>
			<rect x="30.1" y="94.5" class="st0" width="26.1" height="4"/>
			<rect x="14" y="24.1" class="st0" width="56.3" height="4"/>
			<rect x="14" y="44.2" class="st0" width="14.1" height="4"/>
			<rect x="14" y="54.3" class="st0" width="16.1" height="4"/>
			<path class="st0" d="M101.5,84.8l-6-4c-0.9-0.6-2.2-0.4-2.8,0.6c0,0,0,0,0,0.1l-8.9,14.2L77.5,91c-0.5-0.3-1-0.5-1.6-0.4
				s-1,0.4-1.3,0.9l-4,6c-0.6,0.9-0.4,2.1,0.5,2.8l14.1,10.1c0.4,0.3,0.8,0.4,1.2,0.4c0.1,0,0.3,0,0.4-0.1c0.6-0.1,1-0.4,1.3-0.9
				l14.1-22.1C102.7,86.6,102.5,85.4,101.5,84.8z M85.8,105.7L75,98l1.8-2.6l6.3,4.8c0.9,0.7,2.1,0.5,2.8-0.4c0-0.1,0.1-0.1,0.1-0.1
				l9-14.3l2.6,1.8L85.8,105.7z"/>
		</g>
	</g>
</g>
</svg>
