<?xml version="1.0" encoding="utf-8"?>
<!-- Generator: Adobe Illustrator 19.1.0, SVG Export Plug-In . SVG Version: 6.00 Build 0)  -->
<svg version="1.1" id="Layer_1" xmlns="http://www.w3.org/2000/svg" xmlns:xlink="http://www.w3.org/1999/xlink" x="0px" y="0px"
	 viewBox="0 0 95.2 62.2" style="enable-background:new 0 0 95.2 62.2;" xml:space="preserve">
<style type="text/css">
	.st0{fill:#FFFFFF;}
	.st1{fill:#EC1C24;}
	.st2{fill:#00ADEE;}
	.st3{fill:#FFF100;}
	.st4{fill:#E11F26;}
</style>
<g>
	<rect x="31.5" y="19.1" class="st0" width="43.4" height="23.1"/>
	<g>
		<path class="st1" d="M47.7,39.4h-2.1l-1.7-4.6h-6.9l-1.6,4.6h-2.1L39.4,23h2L47.7,39.4z M43.2,33.1l-2.6-7
			c-0.1-0.2-0.2-0.6-0.3-1.1h0c-0.1,0.5-0.2,0.8-0.3,1.1l-2.5,7H43.2z"/>
		<path class="st1" d="M61.9,39.4h-2.3l-2.7-4.6c-0.3-0.4-0.5-0.8-0.7-1.1c-0.2-0.3-0.5-0.5-0.7-0.7c-0.2-0.2-0.5-0.3-0.8-0.4
			c-0.3-0.1-0.6-0.1-1-0.1H52v7h-1.9V23H55c0.7,0,1.4,0.1,2,0.3c0.6,0.2,1.1,0.5,1.6,0.8s0.8,0.8,1,1.4c0.3,0.5,0.4,1.2,0.4,1.9
			c0,0.6-0.1,1.1-0.3,1.6c-0.2,0.5-0.4,0.9-0.7,1.3c-0.3,0.4-0.7,0.7-1.1,1c-0.4,0.3-0.9,0.5-1.5,0.6v0c0.3,0.1,0.5,0.3,0.7,0.4
			c0.2,0.2,0.4,0.3,0.6,0.6c0.2,0.2,0.4,0.5,0.5,0.7c0.2,0.3,0.4,0.6,0.6,0.9L61.9,39.4z M52,24.7v5.9h2.6c0.5,0,0.9-0.1,1.3-0.2
			c0.4-0.1,0.8-0.4,1.1-0.6s0.5-0.6,0.7-1c0.2-0.4,0.3-0.8,0.3-1.3c0-0.9-0.3-1.6-0.8-2s-1.4-0.7-2.5-0.7H52z"/>
		<path class="st1" d="M72.7,24.7H68v14.6h-1.9V24.7h-4.7V23h11.3V24.7z"/>
	</g>
	<polygon class="st2" points="8.7,17.8 1.8,17.8 1.8,0.5 4.7,0.4 6.3,7.5 8.2,0.6 8.7,0.5 	"/>
	<polygon class="st3" points="22.6,17.8 15.7,17.8 15.7,0.4 17.8,0.5 19.2,4.2 20.6,0.5 22.7,0.5 	"/>
	<polygon class="st4" points="15.8,17.8 8.7,17.8 8.7,0.5 11.5,0.5 12.5,0.5 13.9,0.4 15.8,0.4 	"/>
	<polygon class="st0" points="1.8,23.7 22.7,23.7 22.7,24.6 1.8,24.6 1.8,23.7 	"/>
	<polygon class="st0" points="1.8,20.5 22.7,20.5 22.7,21.4 1.8,21.4 1.8,20.5 	"/>
	<path class="st0" d="M12.3,26.5h10.6c0.2,0,0.4,0.2,0.4,0.4c0,0.2-0.1,0.4-0.3,0.4c-0.2,0-0.3,0.1-0.5,0.2
		c-3.2,1.1-5.3,3.9-6.4,7.3c-1.1,3.4-1.2,7.3-0.4,10.4c0.1,0.3,0.2,0.6,0.2,0.8c1.4,4.1,2.1,7.5,1.6,10.2c-0.4,2.8-2,4.8-5.1,5.9
		l-0.1-0.4l0.1,0.4c-0.1,0-0.2,0-0.3,0C9,61.1,7.4,59,7,56.3c-0.4-2.7,0.3-6.1,1.6-10.2c0.1-0.3,0.2-0.5,0.2-0.8
		c0.8-3.1,0.7-7-0.4-10.4c-1.1-3.4-3.2-6.2-6.4-7.3c-0.2-0.1-0.3-0.1-0.5-0.2L1.7,27l-0.1,0.4c-0.2-0.1-0.4-0.3-0.3-0.5
		c0.1-0.2,0.2-0.3,0.4-0.3H12.3L12.3,26.5z M20.6,27.4h-8.4H3.9c2.6,1.5,4.4,4.1,5.4,7.2c1.2,3.6,1.3,7.7,0.4,10.9
		c-0.1,0.3-0.2,0.6-0.3,0.9c-1.3,3.9-2,7.2-1.6,9.8c0.4,2.4,1.7,4.2,4.4,5.2c2.7-1,4.1-2.8,4.4-5.2c0.4-2.6-0.3-5.9-1.6-9.8
		c-0.1-0.3-0.2-0.6-0.3-0.9c-0.9-3.3-0.8-7.3,0.4-10.9C16.2,31.5,18,28.9,20.6,27.4L20.6,27.4z"/>
	<path class="st0" d="M15.5,59.7c-0.8-1.7-0.9-3.5-0.7-5.4c0.2-1.9,0.7-3.8,1.3-5.7l0.4,0.1c-0.6,1.9-1.1,3.8-1.3,5.6
		c-0.2,1.8-0.1,3.6,0.7,5.1L15.5,59.7L15.5,59.7z"/>
	<path class="st0" d="M15,38.7c-0.2,0.4-0.5,0.8-0.7,1.3c-3.2,5.8-6.3,11.5-3.9,18.9c0.4,1.1,0.8,1.8,1.2,2.3
		c0.1,0.1,0.1,0.2,0.2,0.3l-0.4,0.2c-0.1-0.1-0.1-0.2-0.2-0.3c-0.4-0.5-0.9-1.2-1.3-2.4c-2.5-7.5,0.7-13.4,3.9-19.2
		c0.2-0.4,0.4-0.8,0.7-1.3L15,38.7L15,38.7z"/>
	<path class="st0" d="M9.3,26.9c0.7,1.8,0.9,3.4,0.8,4.7c-0.1,1.4-0.4,2.5-0.9,3.6l-0.4-0.2c0.5-1.1,0.8-2.2,0.9-3.5
		c0.1-1.3-0.1-2.8-0.8-4.5L9.3,26.9L9.3,26.9z"/>
	<path class="st0" d="M13.8,27c0.1,2.8-0.3,4.9-0.9,6.8c-0.7,1.9-1.7,3.7-2.9,5.9l-0.4-0.2c1.2-2.2,2.2-3.9,2.9-5.8
		c0.6-1.9,1-3.9,0.9-6.7L13.8,27L13.8,27z"/>
	<path class="st0" d="M14.9,42.5c-1.2,2-2.5,4.7-3.3,7.1c-0.7,2.3-0.9,4.3,0.4,5.2c0.1,0.1,0.2,0,0.4-0.3c0.5-0.7,1-2.5,1.6-4.5
		c0.4-1.3,0.8-2.7,1.2-3.9l0.4,0.1c-0.4,1.3-0.8,2.6-1.2,3.9c-0.6,2-1.1,3.8-1.7,4.6c-0.3,0.5-0.6,0.6-1,0.4c-1.5-1-1.4-3.2-0.6-5.7
		c0.8-2.4,2.2-5.1,3.3-7.1L14.9,42.5L14.9,42.5z"/>
	<path class="st0" d="M17.4,27c-0.3,0.8-0.5,1.8-0.6,2.8c-0.1,1-0.2,2.1-0.1,3l-0.4,0c0-0.9,0-2,0.1-3c0.1-1,0.3-2,0.6-2.8L17.4,27
		L17.4,27z"/>
	<rect x="3.2" y="3" class="st0" width="0.4" height="13"/>
	<rect x="20.4" y="4.2" class="st0" width="0.4" height="11.9"/>
	<path class="st0" d="M24.1,17.4h-1v-17V0h-0.4h-2.1h-0.3l-0.1,0.3l-0.8,3.2v0c0,0,0,0,0,0c0,0,0,0-0.1,0c0,0,0,0,0,0c0,0,0,0,0,0
		l-0.7-3.2L18.4,0H18H8.3H7.9L7.8,0.3L6.4,6.7c0,0,0,0,0,0c0,0,0,0-0.1,0c0,0,0,0-0.1,0l0,0c0,0,0,0,0,0l-1-6.3L5.1,0H4.8H1.9H1.4
		v0.4v17h-1H0v0.4V27v0.4h0.4h23.7h0.4V27v-9.1v-0.4H24.1z M2.3,0.9h2.1l1,6c0,0.2,0.1,0.4,0.3,0.6h0c0.2,0.1,0.4,0.2,0.6,0.2
		c0.2,0,0.4-0.1,0.6-0.2c0.2-0.1,0.3-0.3,0.3-0.5l1.4-6H14v4.8h0.4V0.9h1.1v8.2H16V0.9h1.7l0.6,2.9c0,0.2,0.2,0.4,0.3,0.5
		c0.2,0.1,0.4,0.2,0.6,0.2c0.2,0,0.4-0.1,0.6-0.2C20,4.2,20.1,4,20.1,3.8l0,0l0.8-2.9h1.3v16.5H2.3V0.9z M23.7,26.5H0.9v-8.3h0.6
		h0.4h20.8h0.4h0.6V26.5z"/>
	<g>
		<path class="st0" d="M31.4,17.3V0.9h4.7c1.4,0,2.5,0.3,3.4,1c0.8,0.7,1.2,1.6,1.2,2.7c0,0.9-0.3,1.7-0.8,2.4
			c-0.5,0.7-1.2,1.2-2.1,1.5v0c1.1,0.1,2,0.5,2.6,1.2c0.7,0.7,1,1.6,1,2.7c0,1.4-0.5,2.5-1.5,3.4c-1,0.9-2.3,1.3-3.8,1.3H31.4z
			 M33.4,2.7v5.3h2c1,0,1.9-0.3,2.5-0.8C38.4,6.7,38.7,6,38.7,5c0-1.6-1-2.4-3.1-2.4H33.4z M33.4,9.7v5.9H36c1.1,0,2-0.3,2.6-0.8
			c0.6-0.5,0.9-1.3,0.9-2.2c0-1.9-1.3-2.9-3.9-2.9H33.4z"/>
		<path class="st0" d="M51.4,17.6c-2.3,0-4.2-0.8-5.6-2.3c-1.4-1.5-2.1-3.5-2.1-6c0-2.6,0.7-4.7,2.1-6.3c1.4-1.6,3.4-2.3,5.8-2.3
			c2.3,0,4.1,0.8,5.5,2.3c1.4,1.5,2.1,3.5,2.1,6c0,2.7-0.7,4.8-2.1,6.3C55.7,16.8,53.8,17.6,51.4,17.6z M51.5,2.4
			c-1.7,0-3.1,0.6-4.2,1.9c-1.1,1.2-1.6,2.9-1.6,4.9c0,2,0.5,3.6,1.6,4.9c1,1.2,2.4,1.8,4.1,1.8c1.8,0,3.2-0.6,4.2-1.8
			c1-1.2,1.6-2.8,1.6-4.9c0-2.2-0.5-3.8-1.5-5C54.7,3,53.3,2.4,51.5,2.4z"/>
		<path class="st0" d="M74.6,16.2c-1.6,0.9-3.5,1.4-5.5,1.4c-2.3,0-4.2-0.8-5.7-2.3c-1.4-1.5-2.2-3.5-2.2-6c0-2.5,0.8-4.6,2.4-6.2
			c1.6-1.6,3.6-2.4,6.1-2.4c1.8,0,3.3,0.3,4.5,0.9v2.1c-1.3-0.8-2.9-1.3-4.7-1.3c-1.8,0-3.3,0.6-4.5,1.9c-1.2,1.3-1.8,2.9-1.8,4.9
			c0,2.1,0.5,3.7,1.6,4.9c1.1,1.2,2.6,1.8,4.4,1.8c1.3,0,2.4-0.3,3.3-0.8v-4.6h-3.6V8.8h5.5V16.2z"/>
		<path class="st0" d="M90.7,16.2c-1.6,0.9-3.5,1.4-5.5,1.4c-2.3,0-4.2-0.8-5.7-2.3s-2.2-3.5-2.2-6c0-2.5,0.8-4.6,2.4-6.2
			c1.6-1.6,3.6-2.4,6.1-2.4c1.8,0,3.3,0.3,4.5,0.9v2.1c-1.3-0.8-2.9-1.3-4.7-1.3c-1.8,0-3.3,0.6-4.5,1.9s-1.8,2.9-1.8,4.9
			c0,2.1,0.5,3.7,1.6,4.9s2.6,1.8,4.4,1.8c1.3,0,2.4-0.3,3.3-0.8v-4.6h-3.6V8.8h5.5V16.2z"/>
	</g>
	<g>
		<path class="st0" d="M43.7,60.3h-1.9v-7.5h-8.5v7.5h-1.9V43.9h1.9v7.2h8.5v-7.2h1.9V60.3z"/>
		<path class="st0" d="M54.6,60.6c-2.3,0-4.2-0.8-5.6-2.3c-1.4-1.5-2.1-3.5-2.1-6c0-2.6,0.7-4.7,2.1-6.3c1.4-1.6,3.4-2.3,5.8-2.3
			c2.3,0,4.1,0.8,5.5,2.3c1.4,1.5,2.1,3.5,2.1,6c0,2.7-0.7,4.8-2.1,6.3C58.9,59.8,57,60.6,54.6,60.6z M54.7,45.4
			c-1.7,0-3.1,0.6-4.2,1.9c-1.1,1.2-1.6,2.9-1.6,4.9c0,2,0.5,3.6,1.6,4.9c1,1.2,2.4,1.8,4.1,1.8c1.8,0,3.2-0.6,4.2-1.8
			c1-1.2,1.6-2.8,1.6-4.9c0-2.2-0.5-3.8-1.5-5C57.9,46,56.5,45.4,54.7,45.4z"/>
		<path class="st0" d="M82.3,60.3h-1.9v-11c0-0.9,0.1-1.9,0.2-3.2h0c-0.2,0.7-0.3,1.3-0.5,1.6l-5.6,12.6h-0.9l-5.6-12.5
			c-0.2-0.4-0.3-0.9-0.5-1.7h0c0.1,0.7,0.1,1.7,0.1,3.2v10.9h-1.8V43.9h2.5l5,11.4c0.4,0.9,0.6,1.5,0.8,2H74c0.3-0.9,0.6-1.6,0.8-2
			l5.1-11.4h2.4V60.3z"/>
		<path class="st0" d="M95.2,60.3h-8.7V43.9h8.3v1.7h-6.4v5.4h5.9v1.7h-5.9v5.7h6.7V60.3z"/>
	</g>
</g>
</svg>
