<?xml version="1.0" encoding="utf-8"?>
<!-- Generator: Adobe Illustrator 19.1.0, SVG Export Plug-In . SVG Version: 6.00 Build 0)  -->
<svg version="1.1" id="Layer_1" xmlns="http://www.w3.org/2000/svg" xmlns:xlink="http://www.w3.org/1999/xlink" x="0px" y="0px"
	 viewBox="0 0 232.4 146.6" style="enable-background:new 0 0 232.4 146.6;" xml:space="preserve">
<style type="text/css">
	.st0{fill:#E11F26;}
	.st1{fill:#00ADEE;}
	.st2{fill:#FFF100;}
	.st3{fill:#4D4E4E;}
	.st4{fill:#FFFFFF;}
	.st5{fill:#464646;}
</style>
<g>
	<g>
		<path class="st0" d="M141.3,69c0.4-1,0.6-2,0.6-3.2c0-2.1-0.7-3.9-2.1-5.1s-3.4-1.9-6-1.9h-6.4v15h6.4c1.2,0,2.3-0.3,3.3-0.7
			c1-0.4,1.9-0.9,2.6-1.6C140.3,70.8,140.9,69.9,141.3,69z"/>
		<path class="st0" d="M98.9,59.8h-0.1c-0.2,1-0.4,2.2-0.6,2.8L92,79.8h13.9l-6.3-17.2C99.4,62,99.1,60.8,98.9,59.8z"/>
		<path class="st0" d="M77.4,44.8v57h106v-57H77.4z M111.6,94.8l-4.2-11h-17l-4,11h-5.2l15.3-40h4.9l15.4,40H111.6z M145.8,94.8
			l-6.7-11.2c-0.6-1-1.2-1.9-1.8-2.7c-0.6-0.7-1.2-1.3-1.8-1.8s-1.3-0.8-2-1c-0.7-0.2-1.5-0.3-2.4-0.3h-3.9v17h-5v-40h12.3
			c1.7,0,3.4,0.2,4.8,0.6c1.5,0.4,2.8,1.1,3.9,2c1.1,0.9,1.9,2,2.6,3.3c0.6,1.3,0.9,2.9,0.9,4.7c0,1.4-0.2,2.7-0.6,3.8
			c-0.4,1.2-1,2.2-1.8,3.1c-0.8,0.9-1.5,1.7-2.6,2.3c-1.1,0.6-2.4,1.1-3.4,1.5v0.1c0,0.3,1,0.6,1.5,1c0.5,0.4,0.8,0.8,1.3,1.4
			s0.8,1.1,1.3,1.8c0.4,0.7,0.9,1.5,1.4,2.3l7.5,12H145.8z M178.4,58.8h-12v36h-5v-36h-11v-4h28V58.8z"/>
	</g>
	<g>
		<polygon class="st1" points="20.5,41.9 4.3,41.9 4.3,1.1 11,1 14.8,17.7 19.3,1.3 20.5,1.2 		"/>
		<polygon class="st2" points="53.3,41.9 37.1,41.9 37.1,1 41.9,1.2 45.3,9.8 48.5,1.1 53.5,1.1 		"/>
		<polygon class="st0" points="37.3,41.9 20.5,41.9 20.5,1.2 27,1.3 29.5,1.2 32.8,0.8 37.3,0.9 		"/>
		<polygon class="st3" points="4.3,55.8 53.5,55.8 53.5,57.9 4.3,57.9 4.3,55.8 		"/>
		<polygon class="st3" points="4.3,48.3 53.5,48.3 53.5,50.3 4.3,50.3 4.3,48.3 		"/>
		<path class="st3" d="M28.9,62.5h24.9c0.6,0,1,0.5,1,1c0,0.5-0.3,0.9-0.8,1c-0.4,0.1-0.8,0.2-1.2,0.4c-7.5,2.5-12.4,9.3-15,17.2
			c-2.6,8-2.9,17.2-0.9,24.5c0.2,0.7,0.4,1.3,0.6,1.9c3.2,9.5,4.9,17.6,3.9,24c-1,6.6-4.7,11.3-12.1,14l-0.3-1l0.3,1
			c-0.3,0.1-0.5,0.1-0.8,0c-7.3-2.7-11-7.4-12-14c-1-6.4,0.6-14.4,3.9-24c0.2-0.6,0.4-1.3,0.6-1.9c2-7.3,1.7-16.5-0.9-24.5
			c-2.6-7.9-7.6-14.7-15-17.2c-0.4-0.1-0.8-0.3-1.2-0.4l0.3-1l-0.3,1c-0.5-0.1-0.9-0.7-0.7-1.2c0.1-0.5,0.5-0.8,1-0.8H28.9
			L28.9,62.5z M48.6,64.5H28.9H9.2c6.2,3.4,10.4,9.7,12.7,16.9c2.8,8.4,3,18,0.9,25.7c-0.2,0.7-0.4,1.4-0.6,2
			c-3.1,9.3-4.7,17-3.8,23c0.9,5.7,4.1,9.9,10.4,12.3c6.4-2.4,9.6-6.6,10.4-12.3c0.9-6-0.7-13.8-3.8-23c-0.2-0.7-0.4-1.4-0.6-2
			c-2.1-7.7-1.8-17.3,0.9-25.7C38.2,74.3,42.4,68,48.6,64.5L48.6,64.5z"/>
		<path class="st3" d="M36.4,140.6c-1.8-3.9-2.2-8.2-1.7-12.6c0.5-4.4,1.7-8.9,3.1-13.4l1,0.3c-1.4,4.5-2.6,8.9-3.1,13.3
			c-0.5,4.3-0.1,8.4,1.6,12.1L36.4,140.6L36.4,140.6z"/>
		<path class="st3" d="M35.3,91.1c-0.5,0.9-1.1,2-1.7,3.1c-7.4,13.7-14.8,27.2-9.1,44.5c0.9,2.7,2,4.2,2.8,5.3
			c0.2,0.2,0.4,0.5,0.5,0.7l-0.8,0.6c-0.2-0.2-0.3-0.4-0.5-0.7c-0.9-1.2-2-2.8-3-5.6c-5.8-17.8,1.6-31.5,9.1-45.3
			c0.5-0.9,1-1.9,1.7-3.1L35.3,91.1L35.3,91.1z"/>
		<path class="st3" d="M21.9,63.3c1.5,4.3,2.1,7.9,1.9,11.1c-0.2,3.2-1,6-2.1,8.6l-0.9-0.4c1.1-2.5,1.9-5.1,2-8.2
			c0.1-3.1-0.4-6.6-1.8-10.7L21.9,63.3L21.9,63.3z"/>
		<path class="st3" d="M32.6,63.5c0.2,6.7-0.6,11.5-2.2,16c-1.6,4.5-3.9,8.6-6.8,13.9l-0.9-0.5c2.9-5.2,5.2-9.3,6.8-13.7
			c1.5-4.4,2.3-9.2,2.1-15.7L32.6,63.5L32.6,63.5z"/>
		<path class="st3" d="M35.1,100.1c-2.7,4.8-6,11-7.8,16.6c-1.7,5.4-2,10.2,1,12.2c0.3,0.2,0.6-0.1,0.9-0.6
			c1.2-1.7,2.4-5.9,3.8-10.6c0.9-3,1.8-6.3,2.9-9.2l1,0.3c-1,3-2,6.2-2.9,9.2c-1.4,4.8-2.6,9-3.9,10.8c-0.7,1.1-1.5,1.4-2.3,0.9
			c-3.5-2.3-3.2-7.5-1.4-13.4c1.8-5.7,5.1-12,7.9-16.8L35.1,100.1L35.1,100.1z"/>
		<path class="st3" d="M40.9,63.7c-0.7,1.9-1.1,4.2-1.4,6.5c-0.3,2.4-0.4,4.9-0.3,7l-1,0.1c-0.1-2.2,0-4.7,0.3-7.2
			c0.3-2.4,0.8-4.7,1.5-6.7L40.9,63.7L40.9,63.7z"/>
		<rect x="7.4" y="7.2" class="st4" width="1" height="30.7"/>
		<rect x="48" y="9.8" class="st4" width="1" height="28"/>
		<path class="st3" d="M56.8,41h-2.4V1V0h-1h-4.9h-0.8l-0.2,0.8l-2,7.6v0c0,0,0,0.1-0.1,0.1c0,0-0.1,0-0.1,0c0,0-0.1,0-0.1,0
			c0,0-0.1-0.1-0.1-0.1l-1.7-7.5L43.2,0h-0.8h-23h-0.8l-0.2,0.8l-3.4,15c0,0,0,0.1-0.1,0.1c0,0-0.1,0-0.1,0c0,0-0.1,0-0.1,0l0,0
			c0,0-0.1-0.1-0.1-0.1L12.3,0.9L12.1,0h-0.9H4.4h-1v1V41H1H0v1v21.5v1h1h55.8h1v-1V42v-1H56.8z M5.4,2h5l2.3,14.1
			c0.1,0.5,0.3,1,0.7,1.3h0c0.4,0.3,0.9,0.5,1.4,0.5c0.5,0,1-0.2,1.4-0.5c0.4-0.3,0.7-0.7,0.8-1.3L20.3,2h12.6v11.2h1V2h2.7v19.3h1
			V2h4l1.5,6.8c0.1,0.5,0.4,0.9,0.8,1.2c0.4,0.3,0.8,0.5,1.4,0.5c0.5,0,1-0.2,1.4-0.4c0.4-0.3,0.7-0.7,0.8-1.2l0,0L49.2,2h3.1V41
			h-47V2z M55.8,62.5H2V43h1.4h1h49h1h1.4V62.5z"/>
	</g>
	<g>
		<path class="st5" d="M97.9,37.5c2.5-2.1,3.7-4.9,3.7-8.3c0-2.8-1-5-2.6-6.7s-3.6-2.7-6.6-3.1v-0.1c2-0.7,4-1.9,5.2-3.6
			s1.9-3.6,1.9-5.9c0-2.7-1-4.9-3-6.6c-2-1.7-4.7-2.5-8.2-2.5H77.4v40h11.2C92.3,40.8,95.4,39.7,97.9,37.5z M81.4,4.8H87
			c5.1,0,7.7,2,7.7,5.9c0,2.3-0.7,4-2.2,5.2c-1.5,1.2-3.5,1.9-6.1,1.9h-5V4.8z M81.4,36.8v-15H87c6.4,0,9.7,2.5,9.7,7.2
			c0,2.3-0.8,4.3-2.3,5.6c-1.5,1.3-3.7,2.2-6.4,2.2H81.4z"/>
		<path class="st5" d="M139.7,35.7c3.5-3.8,5.2-9,5.2-15.5c0-6-1.7-10.9-5.1-14.6S132,0,126.5,0c-6,0-10.7,1.9-14.2,5.7
			c-3.5,3.8-5.2,9-5.2,15.4c0,6,1.7,10.9,5.1,14.6s8,5.6,13.6,5.6C131.6,41.3,136.2,39.5,139.7,35.7z M115.8,32.6
			c-2.6-3-3.8-7-3.8-11.9c0-4.9,1.3-8.9,3.9-11.9c2.6-3,6-4.5,10.2-4.5c4.3,0,7.7,1.4,10.2,4.3c2.5,2.9,3.7,7,3.7,12.2
			c0,5.2-1.3,9.2-3.8,12c-2.5,2.9-6,4.3-10.4,4.3C121.7,37.1,118.4,35.6,115.8,32.6z"/>
		<path class="st5" d="M182.4,37.9V19.8h-13v4h9v11.5c-3,1.2-5.2,1.9-8.3,1.9c-4.6,0-8.3-1.4-10.9-4.3c-2.7-2.9-4-6.9-4-11.9
			c0-4.9,1.4-8.9,4.3-12c2.9-3.1,6.3-4.6,10.8-4.6c4.4,0,8.2,1,11.2,3.1V2.1c-2-1.4-6.4-2.1-10.7-2.1c-6,0-10.8,2-14.8,6
			c-3.9,4-5.8,9.1-5.8,15.2c0,6.1,1.8,10.9,5.3,14.6c3.5,3.7,8,5.5,13.7,5.5C174,41.3,178.4,40.2,182.4,37.9z"/>
		<path class="st5" d="M222.4,19.8h-14v4h9v11.5c-2,1.2-5.1,1.9-8.2,1.9c-4.6,0-8.2-1.4-10.9-4.3c-2.7-2.9-4-6.9-4-11.9
			c0-4.9,1.4-8.9,4.3-12c2.9-3.1,6.7-4.6,11.2-4.6c4.4,0,7.6,1,11.6,3.1V2.1c-3-1.4-6.8-2.1-11.1-2.1c-6,0-11,2-15,6
			c-3.9,4-5.9,9.1-5.9,15.2c0,6.1,1.7,10.9,5.3,14.6c3.5,3.7,8.4,5.5,14.1,5.5c4.9,0,8.6-1.1,13.6-3.4V19.8z"/>
		<polygon class="st5" points="102.4,123.8 81.4,123.8 81.4,105.8 77.4,105.8 77.4,145.8 81.4,145.8 81.4,127.8 102.4,127.8 
			102.4,145.8 107.4,145.8 107.4,105.8 102.4,105.8 		"/>
		<path class="st5" d="M134.3,105.2c-6,0-10.7,1.9-14.2,5.7c-3.5,3.8-5.2,9-5.2,15.4c0,6,1.7,10.9,5.1,14.6c3.4,3.7,8,5.6,13.6,5.6
			c5.8,0,10.4-1.9,13.9-5.7c3.5-3.8,5.2-9,5.2-15.5c0-6-1.7-10.9-5.1-14.6C144.3,107.1,139.8,105.2,134.3,105.2z M144,138.1
			c-2.5,2.9-6,4.3-10.4,4.3c-4.1,0-7.4-1.5-10-4.5s-3.8-7-3.8-11.9c0-4.9,1.3-8.9,3.9-11.9c2.6-3,6-4.5,10.2-4.5
			c4.3,0,7.7,1.4,10.2,4.3c2.5,2.9,3.7,7,3.7,12.2C147.8,131.2,146.5,135.2,144,138.1z"/>
		<path class="st5" d="M183,133.7c-0.5,1.1-1.1,3.1-1.9,5.1h-0.2c-0.3-1-0.9-2.8-1.8-4.9l-12.3-28.1h-6.4v40h5v-26.6
			c0-3.6-0.4-6.4-0.5-7.4h0.1c0.4,1,0.8,2.9,1.2,3.8l13.6,30.2h2.3l13.7-30.4c0.4-0.8,0.8-2.6,1.2-3.6h0.1c-0.3,3-0.7,5.2-0.7,7.3
			v26.7h5v-40h-5.9L183,133.7z"/>
		<polygon class="st5" points="216.4,141.8 216.4,127.8 231.4,127.8 231.4,123.8 216.4,123.8 216.4,109.8 232.4,109.8 232.4,105.8 
			212.4,105.8 212.4,145.8 233.4,145.8 233.4,141.8 		"/>
	</g>
</g>
</svg>
