<?xml version="1.0" encoding="utf-8"?>
<!-- Generator: Adobe Illustrator 19.1.0, SVG Export Plug-In . SVG Version: 6.00 Build 0)  -->
<svg version="1.1" id="Layer_1" xmlns="http://www.w3.org/2000/svg" xmlns:xlink="http://www.w3.org/1999/xlink" x="0px" y="0px"
	 viewBox="0 0 262.3 202" style="enable-background:new 0 0 262.3 202;" xml:space="preserve">
<style type="text/css">
	.st0{fill:#474747;}
	.st1{fill:#E21F26;}
	.st2{fill:#00AEEF;}
	.st3{fill:#FFF200;}
	.st4{fill:#4D4E4E;}
	.st5{fill:#FFFFFF;}
</style>
<g>
	<g>
		<path class="st0" d="M256.3,202H6.5c-3.3,0-5.9-2.7-5.9-5.9V5.9C0.6,2.7,3.3,0,6.5,0h249.8c3.3,0,5.9,2.7,5.9,5.9v190.2
			C262.2,199.4,259.6,202,256.3,202z M6.5,3C4.9,3,3.6,4.3,3.6,5.9v190.2c0,1.6,1.3,2.9,2.9,2.9h249.8c1.6,0,2.9-1.3,2.9-2.9V5.9
			c0-1.6-1.3-2.9-2.9-2.9H6.5z"/>
	</g>
	<g>
		<path class="st1" d="M150.9,97.6c0.3-0.8,0.5-1.6,0.5-2.6c0-1.7-0.6-3-1.7-4c-1.1-1-2.7-1.4-4.8-1.4h-5.1v11.6h5.1
			c0.9,0,1.8-0.1,2.6-0.4c0.8-0.3,1.5-0.7,2.1-1.2C150.1,99,150.6,98.4,150.9,97.6z"/>
		<path class="st1" d="M117.2,90.1L117.2,90.1c-0.2,0.9-0.4,1.6-0.6,2.1l-5,13.6h11l-5-13.6C117.5,91.8,117.3,91.1,117.2,90.1z"/>
		<g>
			<g>
				<path class="st1" d="M99.7,78.5v45h84.7v-45H99.7z M127.2,118.1l-3.4-8.9h-13.5l-3.2,8.9H103l12.2-31.9h3.9l12.3,31.9H127.2z
					 M154.5,118.1l-5.3-8.9c-0.5-0.8-1-1.5-1.4-2.1c-0.5-0.6-0.9-1.1-1.4-1.4c-0.5-0.4-1-0.6-1.6-0.8c-0.6-0.2-1.2-0.3-1.9-0.3h-3.1
					v13.6h-3.7V86.2h9.5c1.4,0,2.7,0.2,3.9,0.5c1.2,0.3,2.2,0.9,3.1,1.6c0.9,0.7,1.5,1.6,2,2.7c0.5,1.1,0.7,2.3,0.7,3.7
					c0,1.1-0.2,2.1-0.5,3.1c-0.3,0.9-0.8,1.8-1.4,2.5c-0.6,0.7-1.4,1.3-2.2,1.9c-0.9,0.5-1.8,0.9-2.9,1.2v0.1c0.5,0.2,1,0.5,1.4,0.8
					s0.8,0.7,1.1,1.1c0.4,0.4,0.7,0.9,1.1,1.4c0.3,0.5,0.7,1.1,1.2,1.8l6,9.6H154.5z M180.1,89.6h-9.2v28.5h-3.7V89.6H158v-3.4h22.1
					V89.6z"/>
				<g>
					<path class="st0" d="M99.6,75.1V43.2h9.1c2.8,0,4.9,0.7,6.6,2c1.6,1.3,2.4,3.1,2.4,5.3c0,1.8-0.5,3.4-1.5,4.7
						c-1,1.3-2.3,2.3-4,2.8v0.1c2.1,0.3,3.9,1.1,5.2,2.4c1.3,1.4,1.9,3.2,1.9,5.3c0,2.7-1,4.9-2.9,6.6c-2,1.7-4.4,2.5-7.4,2.5H99.6z
						 M103.3,46.6v10.3h3.8c2,0,3.7-0.5,4.8-1.5c1.2-1,1.8-2.4,1.8-4.2c0-3.1-2-4.6-6.1-4.6H103.3z M103.3,60.2v11.5h5.1
						c2.2,0,3.9-0.5,5.1-1.6c1.2-1,1.8-2.5,1.8-4.3c0-3.8-2.6-5.6-7.7-5.6H103.3z"/>
					<path class="st0" d="M138.6,75.6c-4.5,0-8.1-1.5-10.9-4.5c-2.7-3-4.1-6.9-4.1-11.6c0-5.1,1.4-9.2,4.2-12.3
						c2.8-3.1,6.5-4.6,11.3-4.6c4.4,0,7.9,1.5,10.6,4.4c2.7,3,4,6.8,4,11.6c0,5.2-1.4,9.3-4.1,12.3
						C146.9,74.1,143.2,75.6,138.6,75.6z M138.8,46c-3.3,0-6.1,1.2-8.2,3.6c-2.1,2.4-3.1,5.6-3.1,9.5c0,3.9,1,7.1,3.1,9.5
						c2,2.4,4.7,3.6,8,3.6c3.5,0,6.3-1.1,8.3-3.4c2-2.3,3-5.5,3-9.6c0-4.2-1-7.5-2.9-9.8C145,47.2,142.3,46,138.8,46z"/>
					<path class="st0" d="M183.9,72.9c-3.2,1.8-6.8,2.7-10.7,2.7c-4.6,0-8.2-1.5-11-4.4c-2.8-2.9-4.2-6.8-4.2-11.7
						c0-4.9,1.6-9,4.7-12.1c3.1-3.2,7.1-4.7,11.9-4.7c3.5,0,6.4,0.6,8.7,1.7v4.1c-2.6-1.6-5.6-2.4-9.2-2.4c-3.6,0-6.5,1.2-8.8,3.7
						c-2.3,2.5-3.4,5.6-3.4,9.6c0,4,1.1,7.2,3.2,9.5c2.1,2.3,5,3.5,8.6,3.5c2.5,0,4.6-0.5,6.5-1.5v-8.9h-7v-3.4h10.7V72.9z"/>
					<path class="st0" d="M215.1,72.9c-3.2,1.8-6.8,2.7-10.7,2.7c-4.5,0-8.2-1.5-11-4.4c-2.8-2.9-4.2-6.8-4.2-11.7
						c0-4.9,1.6-9,4.7-12.1c3.1-3.2,7.1-4.7,11.9-4.7c3.5,0,6.4,0.6,8.7,1.7v4.1c-2.6-1.6-5.6-2.4-9.2-2.4c-3.6,0-6.5,1.2-8.8,3.7
						c-2.3,2.5-3.4,5.6-3.4,9.6c0,4,1.1,7.2,3.2,9.5c2.1,2.3,5,3.5,8.6,3.5c2.5,0,4.6-0.5,6.5-1.5v-8.9h-7v-3.4h10.7V72.9z"/>
				</g>
				<g>
					<path class="st0" d="M123.6,158.9h-3.7v-14.5h-16.5v14.5h-3.7V127h3.7v14h16.5v-14h3.7V158.9z"/>
					<path class="st0" d="M144.8,159.5c-4.5,0-8.1-1.5-10.9-4.5c-2.7-3-4.1-6.9-4.1-11.6c0-5.1,1.4-9.2,4.2-12.3
						c2.8-3.1,6.5-4.6,11.3-4.6c4.4,0,7.9,1.5,10.6,4.4c2.7,3,4,6.8,4,11.6c0,5.2-1.4,9.3-4.1,12.3
						C153.1,157.9,149.4,159.5,144.8,159.5z M145.1,129.9c-3.3,0-6.1,1.2-8.2,3.6c-2.1,2.4-3.1,5.6-3.1,9.5c0,3.9,1,7.1,3.1,9.5
						c2,2.4,4.7,3.6,8,3.6c3.5,0,6.3-1.1,8.3-3.4c2-2.3,3-5.5,3-9.6c0-4.2-1-7.5-2.9-9.8C151.2,131,148.5,129.9,145.1,129.9z"/>
					<path class="st0" d="M198.8,158.9h-3.7v-21.4c0-1.7,0.1-3.8,0.3-6.2h-0.1c-0.4,1.4-0.7,2.5-1,3.1l-10.9,24.5h-1.8l-10.9-24.3
						c-0.3-0.7-0.6-1.8-1-3.3h-0.1c0.1,1.3,0.2,3.4,0.2,6.2v21.3h-3.6V127h4.9l9.8,22.2c0.8,1.7,1.2,3,1.5,3.8h0.1
						c0.6-1.7,1.1-3.1,1.5-3.9l10-22.1h4.7V158.9z"/>
					<path class="st0" d="M224,158.9h-16.9V127h16.2v3.4h-12.5V141h11.5v3.4h-11.5v11.2H224V158.9z"/>
				</g>
			</g>
			<polygon class="st2" points="55.1,75.9 42.2,75.9 42.2,43.5 47.5,43.4 50.6,56.6 54.1,43.6 55.1,43.5 			"/>
			<polygon class="st3" points="81.1,75.9 68.1,75.9 68.1,43.4 72,43.5 74.7,50.4 77.3,43.5 81.3,43.5 			"/>
			<polygon class="st1" points="68.1,75.9 55.1,75.9 55.1,43.5 60.1,43.6 62,43.5 64.7,43.2 68.1,43.3 			"/>
			<g>
				<rect x="42.2" y="86.9" class="st4" width="39" height="1.6"/>
				<rect x="42.2" y="80.9" class="st4" width="39" height="1.6"/>
				<path class="st4" d="M82,75.1V42.6h-5.3l-1.7,6.6v0c0,0,0,0.1-0.1,0.1c0,0-0.1,0-0.1,0c0,0-0.1,0-0.1,0c0,0,0,0,0-0.1l-1.5-6.6
					H53.6l-2.9,12.5c0,0,0,0.1-0.1,0.1c0,0-0.1,0-0.1,0c0,0-0.1,0-0.1,0l0,0c0,0,0-0.1,0-0.1l-2-12.5h-6.9v32.5h-2.7v18.7h3.1
					c0.3,0.1,0.6,0.2,0.9,0.3c5.9,2,9.9,7.4,11.9,13.7c2.1,6.4,2.3,13.7,0.7,19.5c-0.1,0.5-0.3,1-0.5,1.5c-2.6,7.6-3.9,14-3.1,19
					c0.8,5.2,3.7,9,9.5,11.1c0.2,0.1,0.4,0.1,0.6,0l0,0c5.9-2.1,8.8-5.9,9.6-11.1c0.8-5.1-0.5-11.5-3.1-19c-0.2-0.5-0.3-1-0.5-1.5
					c-1.6-5.8-1.4-13.1,0.7-19.5c2.1-6.3,6-11.7,11.9-13.7c0.3-0.1,0.6-0.2,0.9-0.3h3.1V75.1H82z M43.1,44.2h4l1.8,11.2
					c0.1,0.4,0.3,0.8,0.6,1h0c0.3,0.3,0.7,0.4,1.1,0.4c0.4,0,0.8-0.1,1.1-0.4c0.3-0.2,0.5-0.6,0.6-1l2.6-11.3h10v9.4
					c0,0.2,0.2,0.4,0.4,0.4c0.2,0,0.4-0.2,0.4-0.4v-9.4h2v14.7c0,0.4,0.2,0.6,0.4,0.6c0.2,0,0.4-0.3,0.4-0.6V44.2h3.2l1.2,5.4
					c0.1,0.4,0.3,0.7,0.6,1c0.3,0.2,0.7,0.4,1.1,0.4c0.4,0,0.8-0.1,1.1-0.4c0.3-0.2,0.5-0.6,0.6-1l0,0l1.4-5.4h2.5v30.9H43.1V44.2z
					 M46.1,93.8h9.6c1,3,1.3,5.6,1.2,7.8c-0.1,1.8-0.4,3.4-1,4.9C54,101.1,50.8,96.4,46.1,93.8z M56.4,107.7
					c0.7-1.8,1.3-3.8,1.4-6.1c0.1-2.3-0.2-4.9-1.2-7.9h5.2h2.1c0,4.8-0.6,8.4-1.7,11.7c-1,3-2.5,5.8-4.4,9.1
					C57.5,112.3,57.1,110,56.4,107.7z M70,147.6c-0.3,2-1,3.7-2,5.2c-1-2.7-1.1-5.5-0.8-8.5c0.3-2.7,1-5.6,1.8-8.4
					C70.1,140.4,70.5,144.3,70,147.6z M68.6,134.4c-1,3.3-1.9,6.6-2.2,9.8c-0.3,3.3-0.1,6.4,1.1,9.4c-1.3,1.6-3.2,2.9-5.7,3.8
					c-0.5-0.2-0.9-0.4-1.4-0.6c-0.6-0.9-1.4-2-2.1-4c-4.5-13.8,1.3-24.5,7.2-35.3c-0.1,1.7,0,3.3,0.1,4.9c-2.1,3.7-4.5,8.4-5.8,12.6
					c-1.5,4.6-1.7,8.7,1.1,10.6c0.7,0.5,1.3,0.2,1.9-0.7c1-1.5,2-4.8,3.1-8.6c0.5-1.8,1.1-3.7,1.7-5.5
					C67.9,132,68.3,133.2,68.6,134.4z M67.1,129.5c-0.7,2.1-1.4,4.4-2,6.6c-1.1,3.7-2.1,7-3,8.4c-0.3,0.4-0.5,0.6-0.7,0.5
					c-2.4-1.6-2.1-5.4-0.8-9.7c1.2-3.8,3.3-8,5.2-11.5c0.2,1.4,0.4,2.7,0.8,4c0.1,0.6,0.3,1.1,0.5,1.6
					C67,129.4,67.1,129.4,67.1,129.5z M69.1,102.9c-0.7,1.4-1.3,2.8-1.8,4.3c-0.9,2.7-1.4,5.5-1.7,8.3c-0.3,0.5-0.5,1-0.8,1.5
					c-6,11-11.9,21.9-7.3,36c0.4,1.2,0.9,2.2,1.3,2.9c-3.2-2-4.9-4.8-5.4-8.3c-0.7-4.8,0.5-10.9,3-18.3c0.2-0.5,0.3-1.1,0.5-1.6
					c0.9-3.5,1.3-7.6,1-11.6c2.1-3.8,3.9-6.9,5-10.3c1.2-3.4,1.8-7.1,1.7-11.9h5.5c-0.4,1.4-0.7,2.9-0.9,4.4
					C69.1,99.8,69,101.4,69.1,102.9z M69.9,101.4c0-1,0.1-2.1,0.3-3.2c0.2-1.6,0.5-3.1,0.9-4.5h6.3C74.3,95.6,71.8,98.2,69.9,101.4z
					 M83.1,92.2H40.4V76.7h42.7V92.2z"/>
			</g>
			<g>
				<path class="st5" d="M45.1,73.2c-0.3,0-0.5-0.2-0.5-0.5V48.3c0-0.3,0.2-0.5,0.5-0.5c0.3,0,0.5,0.2,0.5,0.5v24.4
					C45.6,72.9,45.4,73.2,45.1,73.2z"/>
			</g>
			<g>
				<path class="st5" d="M77.3,73.2c-0.3,0-0.5-0.2-0.5-0.4V53.4c0-0.2,0.2-0.4,0.5-0.4c0.3,0,0.5,0.2,0.5,0.4v19.4
					C77.8,73,77.6,73.2,77.3,73.2z"/>
			</g>
		</g>
	</g>
</g>
</svg>
