<?xml version="1.0" encoding="utf-8"?>
<!-- Generator: Adobe Illustrator 19.1.0, SVG Export Plug-In . SVG Version: 6.00 Build 0)  -->
<svg version="1.1" id="Layer_1" xmlns="http://www.w3.org/2000/svg" xmlns:xlink="http://www.w3.org/1999/xlink" x="0px" y="0px"
	 viewBox="-93 90.4 112.5 120.6" style="enable-background:new -93 90.4 112.5 120.6;" xml:space="preserve">
<style type="text/css">
	.st0{fill:#FFFFFF;}
</style>
<g>
	<g>
		<path class="st0" d="M-36.6,180.1c-16.1,0-29.2-13.1-29.2-29.2c0-16.1,13.1-29.2,29.2-29.2c16.1,0,29.2,13.1,29.2,29.2
			C-7.4,167-20.5,180.1-36.6,180.1z M-36.6,125.8c-13.8,0-25.1,11.2-25.1,25.1c0,13.8,11.2,25.1,25.1,25.1
			c13.8,0,25.1-11.2,25.1-25.1C-11.6,137.1-22.8,125.8-36.6,125.8z"/>
		<path class="st0" d="M-36.6,189.1L-36.6,189.1c-21.1,0-38.2-17.2-38.2-38.3c0-21.1,17.2-38.3,38.2-38.3
			c21.1,0,38.3,17.2,38.3,38.3C1.6,172-15.5,189.1-36.6,189.1z M-36.6,116.8c-18.8,0-34.1,15.3-34.1,34.1
			c0,18.8,15.3,34.1,34.1,34.1c18.8,0,34.1-15.3,34.1-34.1C-2.5,132.1-17.8,116.8-36.6,116.8z"/>
		<g>
			<path class="st0" d="M-34.7,164.7h-3.9c-2.1,0-4.1-0.8-5.6-2.3c-1.5-1.5-2.3-3.5-2.3-5.6l4.1,0c0,1,0.4,2,1.1,2.7
				c0.7,0.7,1.7,1.1,2.7,1.1h3.9c1,0,2-0.4,2.7-1.1c0.7-0.7,1.1-1.7,1.1-2.7c0-1-0.4-2-1.1-2.7c-0.7-0.7-1.7-1.1-2.7-1.1h-3.9
				c-2.1,0-4.1-0.8-5.6-2.3c-1.5-1.5-2.3-3.5-2.3-5.6c0-2.1,0.8-4.1,2.3-5.6c1.5-1.5,3.5-2.3,5.6-2.3h3.9c2.1,0,4.1,0.8,5.6,2.3
				c1.5,1.5,2.3,3.5,2.3,5.6h-4.1c0-1-0.4-2-1.1-2.7c-0.7-0.7-1.7-1.1-2.7-1.1h-3.9c-1,0-2,0.4-2.7,1.1c-0.7,0.7-1.1,1.7-1.1,2.7
				c0,1,0.4,2,1.1,2.7c0.7,0.7,1.7,1.1,2.7,1.1h3.9c2.1,0,4.1,0.8,5.6,2.3c1.5,1.5,2.3,3.5,2.3,5.6c0,2.1-0.8,4.1-2.3,5.6
				C-30.6,163.9-32.6,164.7-34.7,164.7z"/>
			<rect x="-38.7" y="134.4" class="st0" width="4.1" height="4.7"/>
			<rect x="-38.7" y="162.6" class="st0" width="4.1" height="4.7"/>
		</g>
	</g>
	<rect x="-38.7" y="94.7" class="st0" width="4.1" height="9.6"/>
	
		<rect x="-61.1" y="101.4" transform="matrix(0.3826 0.9239 -0.9239 0.3826 60.857 115.8653)" class="st0" width="9.6" height="4.1"/>
	<rect x="-5.2" y="185.1" transform="matrix(0.7072 0.707 -0.707 0.7072 132.211 55.042)" class="st0" width="9.6" height="4.1"/>
	<rect x="-79.7" y="112.5" transform="matrix(0.7072 0.707 -0.707 0.7072 59.0908 86.4918)" class="st0" width="9.6" height="4.1"/>
	
		<rect x="-88.9" y="129.2" transform="matrix(0.9238 0.3828 -0.3828 0.9238 43.8346 42.1602)" class="st0" width="9.6" height="4.1"/>
	<rect x="-92.8" y="148.8" class="st0" width="9.6" height="4.1"/>
	
		<rect x="-86.1" y="165.7" transform="matrix(0.3829 0.9238 -0.9238 0.3829 105.6547 182.8465)" class="st0" width="4.1" height="9.6"/>
	<rect x="-75" y="182.3" transform="matrix(0.707 0.7072 -0.7072 0.707 110.9951 106.4013)" class="st0" width="4.1" height="9.6"/>
	
		<rect x="-58.3" y="193.4" transform="matrix(0.9239 0.3827 -0.3827 0.9239 71.5901 36.6218)" class="st0" width="4.1" height="9.6"/>
	<rect x="-38.7" y="197.4" class="st0" width="4.1" height="9.6"/>
	
		<rect x="-21.8" y="196.2" transform="matrix(0.3824 0.924 -0.924 0.3824 172.7069 138.159)" class="st0" width="9.6" height="4.1"/>
	<rect x="5.9" y="168.4" transform="matrix(0.9239 0.3826 -0.3826 0.9239 66.0602 8.8533)" class="st0" width="9.6" height="4.1"/>
	<rect x="9.9" y="148.8" class="st0" width="9.6" height="4.1"/>
	<rect x="8.7" y="126.4" transform="matrix(0.3825 0.924 -0.924 0.3825 127.9104 71.0907)" class="st0" width="4.1" height="9.6"/>
	
		<rect x="-2.4" y="109.8" transform="matrix(0.7071 0.7071 -0.7071 0.7071 80.9234 33.8098)" class="st0" width="4.1" height="9.6"/>
	<rect x="-19.1" y="98.6" transform="matrix(0.924 0.3824 -0.3824 0.924 38.2787 14.3656)" class="st0" width="4.1" height="9.6"/>
</g>
</svg>
