<?xml version="1.0" encoding="utf-8"?>
<!-- Generator: Adobe Illustrator 19.1.0, SVG Export Plug-In . SVG Version: 6.00 Build 0)  -->
<svg version="1.1" id="Capa_1" xmlns="http://www.w3.org/2000/svg" xmlns:xlink="http://www.w3.org/1999/xlink" x="0px" y="0px"
	 viewBox="-239 89 480 384" style="enable-background:new -239 89 480 384;" xml:space="preserve">
<style type="text/css">
	.st0{fill:#FFFFFF;}
</style>
<g>
	<path class="st0" d="M233,353h-16V145c0-4.4-3.6-8-8-8h-384V97c0-4.4-3.6-8-8-8h-24c-17.7,0-32,14.3-32,32v320
		c0,17.7,14.3,32,32,32h416c4.4,0,8-3.6,8-8v-32h16c4.4,0,8-3.6,8-8v-64C241,356.6,237.4,353,233,353z M-223,121c0-8.8,7.2-16,16-16
		h16v304h-16c-5.6,0-11.1,1.5-16,4.3V121z M201,457h-408c-8.8,0-16-7.2-16-16c0-8.8,7.2-16,16-16h24c4.4,0,8-3.6,8-8V153h376v200H57
		c-0.1,0-0.2,0.1-0.2,0.1c-1.2,0-2.3,0.3-3.3,0.8l-64,32c-4,2-5.6,6.8-3.6,10.7c0.8,1.6,2,2.8,3.6,3.6l64,32
		c1.1,0.5,2.3,0.8,3.6,0.8h144V457z M177,369v48h-16v-48H177z M65,385v-16h80v16H65z M145,401v16H65v-16H145z M49,373.9v38.1
		L10.9,393L49,373.9z M225,417h-32v-48h32V417z"/>
	<path class="st0" d="M-143,329h48c4.4,0,8-3.6,8-8v-16h24v16c0,4.4,3.6,8,8,8h80c4.4,0,8-3.6,8-8v-48c0-4.4-3.6-8-8-8h-80
		c-4.4,0-8,3.6-8,8v16h-24v-16c0-4.4-3.6-8-8-8h-16v-24h16c4.4,0,8-3.6,8-8v-16h24v16c0,4.4,3.6,8,8,8h80c4.4,0,8-3.6,8-8v-48
		c0-4.4-3.6-8-8-8h-80c-4.4,0-8,3.6-8,8v16h-24v-16c0-4.4-3.6-8-8-8h-48c-4.4,0-8,3.6-8,8v48c0,4.4,3.6,8,8,8h16v24h-16
		c-4.4,0-8,3.6-8,8v48C-151,325.4-147.4,329-143,329z M-47,281h64v32h-64V281z M-47,193h64v32h-64V193z M-135,225v-32h32v32H-135z
		 M-135,281h32v32h-32V281z"/>
	<path class="st0" d="M169,289h-16v-8.9c21.6-22.1,21.3-57.5-0.8-79.2s-57.5-21.3-79.2,0.8c-21.3,21.8-21.3,56.6,0,78.4v8.9H57v16
		h112V289z M142.8,267.6c-1,1.1-2.1,2.2-3.2,3.2c-1.7,1.5-2.7,3.7-2.7,6V289h-16v-20.7l21.7-21.7l-11.3-11.3L113,253.7l-18.3-18.3
		l-11.3,11.3l21.7,21.7V289H89v-12.3c0-2.3-1-4.4-2.7-6c-16.5-14.7-17.9-40-3.2-56.5c14.7-16.5,40-17.9,56.5-3.2
		C156.1,225.8,157.5,251.1,142.8,267.6z"/>
	<rect x="-151" y="385" class="st0" width="112" height="16"/>
	<rect x="-151" y="417" class="st0" width="112" height="16"/>
	<rect x="-119" y="353" class="st0" width="80" height="16"/>
	<rect x="-151" y="353" class="st0" width="16" height="16"/>
</g>
</svg>
