<?xml version="1.0" encoding="utf-8"?>
<!-- Generator: Adobe Illustrator 19.1.0, SVG Export Plug-In . SVG Version: 6.00 Build 0)  -->
<svg version="1.1" id="Layer_1" xmlns="http://www.w3.org/2000/svg" xmlns:xlink="http://www.w3.org/1999/xlink" x="0px" y="0px"
	 viewBox="-93 90.4 112.5 120.6" style="enable-background:new -93 90.4 112.5 120.6;" xml:space="preserve">
<style type="text/css">
	.st0{fill:#FFFFFF;}
</style>
<g>
	<g>
		<path class="st0" d="M-36.4,210.6c-28.1,0-51-22.9-51-51c0-28.1,22.9-51,51-51c28.1,0,51,22.9,51,51
			C14.6,187.7-8.3,210.6-36.4,210.6z M-36.4,112.4c-26,0-47.1,21.2-47.1,47.1c0,26,21.2,47.1,47.1,47.1c26,0,47.1-21.2,47.1-47.1
			C10.7,133.6-10.5,112.4-36.4,112.4z"/>
		<rect x="-38.4" y="98.2" class="st0" width="3.9" height="12.3"/>
		<path class="st0" d="M-30.3,106.3h-12.3c-2.2,0-4.2-0.8-5.7-2.4c-1.5-1.5-2.4-3.6-2.4-5.7c0-2.2,0.8-4.2,2.4-5.7
			c1.5-1.5,3.6-2.4,5.7-2.4h12.3c2.2,0,4.2,0.8,5.7,2.4c1.5,1.5,2.4,3.6,2.4,5.7c0,2.2-0.8,4.2-2.4,5.7
			C-26.1,105.4-28.2,106.3-30.3,106.3z M-42.6,94c-1.1,0-2.2,0.4-3,1.2c-0.8,0.8-1.2,1.8-1.2,3c0,1.1,0.4,2.2,1.2,3
			c0.8,0.8,1.8,1.2,3,1.2h12.3c1.1,0,2.2-0.4,3-1.2c0.8-0.8,1.2-1.8,1.2-3c0-1.1-0.4-2.2-1.2-3c-0.8-0.8-1.8-1.2-3-1.2H-42.6z"/>
		<path class="st0" d="M6.9,125.9l-2.7-2.8l2.9-2.9c0.2-0.2,0.4-0.6,0.4-0.9c0-0.4-0.1-0.7-0.4-0.9l-2.3-2.3c-0.5-0.5-1.4-0.5-1.9,0
			l-2.9,2.9l-2.7-2.7l2.9-2.9c1-1,2.3-1.5,3.7-1.5c1.4,0,2.7,0.5,3.7,1.5l2.3,2.3c1,1,1.5,2.3,1.5,3.7c0,1.4-0.5,2.7-1.5,3.7
			L6.9,125.9z"/>
		<path class="st0" d="M-79.8,125.9l-2.9-2.9c-1-1-1.5-2.3-1.5-3.7c0-1.4,0.5-2.7,1.5-3.7l2.3-2.3c1-1,2.3-1.5,3.7-1.5
			c1.4,0,2.7,0.5,3.7,1.5l2.9,2.9l-2.7,2.7l-2.9-2.9c-0.5-0.5-1.4-0.5-1.9,0l-2.3,2.3c-0.3,0.3-0.4,0.6-0.4,0.9
			c0,0.4,0.1,0.7,0.4,0.9l2.9,2.9L-79.8,125.9z"/>
	</g>
	<g>
		<g>
			
				<rect x="-58.3" y="124.7" transform="matrix(0.5002 0.8659 -0.8659 0.5002 81.9238 111.3254)" class="st0" width="5.7" height="3.9"/>
			
				<rect x="-72.3" y="138.6" transform="matrix(0.8661 0.4999 -0.4999 0.8661 60.9684 53.513)" class="st0" width="5.7" height="3.9"/>
			<rect x="-77.4" y="157.6" class="st0" width="5.7" height="3.9"/>
			
				<rect x="-71.3" y="175.7" transform="matrix(0.5001 0.866 -0.866 0.5001 119.9679 149.3776)" class="st0" width="3.9" height="5.7"/>
			<rect x="-57.4" y="189.7" transform="matrix(0.866 0.5 -0.5 0.866 88.8249 53.5238)" class="st0" width="3.9" height="5.7"/>
			<rect x="-38.4" y="194.8" class="st0" width="3.9" height="5.7"/>
			<rect x="-20.3" y="190.6" transform="matrix(0.5 0.866 -0.866 0.5 158.0099 111.3414)" class="st0" width="5.7" height="3.9"/>
			
				<rect x="-6.4" y="176.7" transform="matrix(0.8659 0.5002 -0.5002 0.8659 88.858 25.6953)" class="st0" width="5.7" height="3.9"/>
		</g>
		<g>
			<path class="st0" d="M-36.4,167.7c-4.5,0-8.1-3.6-8.1-8.1c0-4.5,3.6-8.1,8.1-8.1c4.5,0,8.1,3.6,8.1,8.1
				C-28.4,164-32,167.7-36.4,167.7z M-36.4,155.4c-2.3,0-4.2,1.9-4.2,4.2s1.9,4.2,4.2,4.2c2.3,0,4.2-1.9,4.2-4.2
				S-34.1,155.4-36.4,155.4z"/>
			<path class="st0" d="M-30.3,161.5v-3.9h29.9c-1-19-16.8-34.2-36-34.2v-3.9c22,0,40,17.9,40,40v1.9L-30.3,161.5z"/>
		</g>
	</g>
</g>
</svg>
